<svg viewBox="0 0 32 32" fill="none" xmlns="http://www.w3.org/2000/svg">
<path d="M32 16C32 24.8366 24.8366 32 16 32C7.16344 32 0 24.8366 0 16C0 7.16344 7.16344 0 16 0C24.8366 0 32 7.16344 32 16Z" fill="black"/>
<path d="M9.16247 6.15339C9.37235 5.95524 9.70858 5.94908 9.92635 6.13485L9.94708 6.15339L16.689 12.5186L21.053 8.39859C21.2696 8.19406 21.6209 8.19406 21.8375 8.39859C22.0542 8.60313 22.0542 8.93474 21.8375 9.13928L16.689 14L9.16247 6.89414L9.14283 6.87458C8.94606 6.66897 8.95259 6.35154 9.16247 6.15339Z" fill="url(#paint0_linear_275_16363)"/>
<path d="M23.8375 25.8466C23.6276 26.0448 23.2914 26.0509 23.0736 25.8652L23.0529 25.8466L16.311 19.4814L11.947 23.6014C11.7304 23.8059 11.3791 23.8059 11.1625 23.6014C10.9458 23.3969 10.9458 23.0653 11.1625 22.8607L16.311 18L23.8375 25.1059L23.8572 25.1254C24.0539 25.331 24.0474 25.6485 23.8375 25.8466Z" fill="url(#paint1_linear_275_16363)"/>
<path d="M25.8466 8.16247C26.0448 8.37235 26.0509 8.70858 25.8652 8.92635L25.8466 8.94708L19.4814 15.689L23.6014 20.053C23.8059 20.2696 23.8059 20.6209 23.6014 20.8375C23.3969 21.0542 23.0653 21.0542 22.8607 20.8375L18 15.689L25.1059 8.16247L25.1254 8.14283C25.331 7.94606 25.6485 7.95259 25.8466 8.16247Z" fill="url(#paint2_linear_275_16363)"/>
<path d="M6.15339 23.8375C5.95524 23.6276 5.94908 23.2914 6.13485 23.0736L6.15339 23.0529L12.5186 16.311L8.39859 11.947C8.19406 11.7304 8.19406 11.3791 8.39859 11.1625C8.60313 10.9458 8.93474 10.9458 9.13928 11.1625L14 16.311L6.89414 23.8375L6.87458 23.8572C6.66897 24.0539 6.35154 24.0474 6.15339 23.8375Z" fill="url(#paint3_linear_275_16363)"/>
<defs>
<linearGradient id="paint0_linear_275_16363" x1="15.5" y1="6" x2="15.5" y2="14" gradientUnits="userSpaceOnUse">
<stop stop-color="#C484FC"/>
<stop offset="1" stop-color="#74F2E8"/>
</linearGradient>
<linearGradient id="paint1_linear_275_16363" x1="17.5" y1="26" x2="17.5" y2="18" gradientUnits="userSpaceOnUse">
<stop stop-color="#C484FC"/>
<stop offset="1" stop-color="#74F2E8"/>
</linearGradient>
<linearGradient id="paint2_linear_275_16363" x1="26" y1="14.5" x2="18" y2="14.5" gradientUnits="userSpaceOnUse">
<stop stop-color="#C484FC"/>
<stop offset="1" stop-color="#74F2E8"/>
</linearGradient>
<linearGradient id="paint3_linear_275_16363" x1="6" y1="17.5" x2="14" y2="17.5" gradientUnits="userSpaceOnUse">
<stop stop-color="#C484FC"/>
<stop offset="1" stop-color="#74F2E8"/>
</linearGradient>
</defs>
</svg>
