<svg width="2246" height="2211" viewBox="0 0 2246 2211" fill="none" xmlns="http://www.w3.org/2000/svg">
<path d="M2230.97 1.86029L171.717 780.082C161.392 783.984 164.072 799.277 175.109 799.435L1128.3 813.089C1132.35 813.147 1135.93 815.535 1137.42 819.308C1150.37 852.13 1212.63 1009.54 1255 1111.25C1285.97 1185.59 1334.76 1148.44 1390 1080.24C1675.5 727.796 2135.95 150.81 2242.5 17.2213C2248.83 9.27605 2240.48 -1.73237 2230.97 1.86029Z" fill="#0891EC"/>
<path d="M3.01488 2193.9L1038.6 919.128C1043.45 913.158 1052.93 914.658 1055.69 921.84C1072.57 965.883 1120.26 1090.35 1151.5 1172.52C1179.39 1245.88 1157.04 1299.68 1092.75 1405.57C1050.33 1475.44 987.379 1575.07 962.584 1614.19C958.192 1621.12 963.576 1630.07 971.762 1629.5L1813.62 1571.12C1825.29 1570.31 1828.62 1586.75 1817.56 1590.55L14.0233 2209.66C4.51723 2212.93 -3.32234 2201.7 3.01488 2193.9Z" fill="#0891EC"/>
<path d="M2230.97 1.86029L171.717 780.082C161.392 783.984 164.072 799.277 175.109 799.435L1128.3 813.089C1132.35 813.147 1135.93 815.535 1137.42 819.308C1150.37 852.13 1212.63 1009.54 1255 1111.25C1285.97 1185.59 1334.76 1148.44 1390 1080.24C1675.5 727.796 2135.95 150.81 2242.5 17.2213C2248.83 9.27605 2240.48 -1.73237 2230.97 1.86029Z" stroke="#0891EC"/>
<path d="M3.01488 2193.9L1038.6 919.128C1043.45 913.158 1052.93 914.658 1055.69 921.84C1072.57 965.883 1120.26 1090.35 1151.5 1172.52C1179.39 1245.88 1157.04 1299.68 1092.75 1405.57C1050.33 1475.44 987.379 1575.07 962.584 1614.19C958.192 1621.12 963.576 1630.07 971.762 1629.5L1813.62 1571.12C1825.29 1570.31 1828.62 1586.75 1817.56 1590.55L14.0233 2209.66C4.51723 2212.93 -3.32234 2201.7 3.01488 2193.9Z" stroke="#0891EC"/>
</svg>
