<?xml version="1.0" encoding="UTF-8"?>
<svg id="Capa_1" data-name="Capa 1" xmlns="http://www.w3.org/2000/svg" viewBox="0 0 194.08 191.49">
  <defs>
    <style>
      .cls-1 {
        fill: #ff2056;
        stroke: #fff6ff;
        stroke-miterlimit: 10;
      }
    </style>
  </defs>
  <path class="cls-1" d="M6.75.59c32.32,12.37,61.31,37.65,79.65,67.01,15.45,30.3,13.76,5.27,36.68-19.71,10.54-14.33,25.98-24.61,40.08-35.23,11.78-7.17,31.63-21.31,29.84,3.79.2,28.36.33,56.81.52,85.21.89,23.41-8.15,46.63-23.72,64.09-7.29,9.34-45.79,37.37-52.78,19.31-7.6-27.13,46.07-28.58,41.08-94.02-4.04-21.37-34.49,26.83-38.42,32.93-11.89,14.3-18.75,45.73-34.61,13.8-16.35-24.78-59.07-98.09-44.89-17.68,3.93,13.56,13.01,25.25,22.58,35.43,5.86,5.9,13.08,10.43,15.59,18.19,2.44,6.44,1.4,17.37-7.45,17.1-22.92-3.11-42.79-19.06-55.38-37.94C-5.89,118.48,2.13,78.65,1.32,32.56,2.77,24.09-2.01-1.07,6.64.58h.11Z"/>
</svg>