<?xml version="1.0" encoding="UTF-8"?>
<svg id="Capa_1" xmlns="http://www.w3.org/2000/svg" baseProfile="tiny-ps" version="1.2" viewBox="0 0 500 500">
  <title>MoonMap</title>
  <rect width="500" height="500" fill="#ffffff"/>
  <path d="M30.8,18.9c78.5,30,148.9,91.4,193.4,162.7,37.5,73.6,33.4,12.8,89.1-47.9,25.6-34.8,63.1-59.8,97.3-85.6,28.6-17.4,76.8-51.7,72.5,9.2.5,68.9.8,137.9,1.3,206.9,2.2,56.9-19.8,113.2-57.6,155.6-17.7,22.7-111.2,90.7-128.2,46.9-18.5-65.9,111.9-69.4,99.8-228.3-9.8-51.9-83.8,65.1-93.3,80-28.9,34.7-45.5,111-84,33.5-39.7-60.2-143.4-238.2-109-42.9,9.5,32.9,31.6,61.3,54.8,86,14.2,14.3,31.8,25.3,37.8,44.2,5.9,15.6,3.4,42.2-18.1,41.5-55.7-7.6-103.9-46.3-134.5-92.1C0,305.2,19.5,208.5,17.6,96.6c3.5-20.6-8.1-81.6,12.9-77.7h.3Z" fill="#ff2056" stroke="#fff6ff" stroke-miterlimit="10"/>
</svg>